<?xml version="1.0" encoding="UTF-8" standalone="no"?>
<!DOCTYPE svg PUBLIC "-//W3C//DTD SVG 1.1//EN"
 "http://www.w3.org/Graphics/SVG/1.1/DTD/svg11.dtd">
<!-- Generated by graphviz version 2.40.1 (20161225.0304)
 -->
<!-- Title: dependencies Pages: 1 -->
<svg width="804pt" height="284pt"
 viewBox="0.00 0.00 804.00 284.00" xmlns="http://www.w3.org/2000/svg" xmlns:xlink="http://www.w3.org/1999/xlink">
<g id="graph0" class="graph" transform="scale(1 1) rotate(0) translate(4 280)">
<title>dependencies</title>
<polygon fill="#ffffff" stroke="transparent" points="-4,4 -4,-280 800,-280 800,4 -4,4"/>
<text text-anchor="start" x="377.0091" y="-42.4" font-family="sans-serif" font-weight="bold" font-size="14.00" fill="#000000">Legend</text>
<polygon fill="#ffffb3" stroke="transparent" points="164,-10 164,-30 184,-30 184,-10 164,-10"/>
<text text-anchor="start" x="187.629" y="-15.4" font-family="sans-serif" font-size="14.00" fill="#000000"> &#160;Declarations</text>
<polygon fill="#8dd3c7" stroke="transparent" points="277,-10 277,-30 297,-30 297,-10 277,-10"/>
<text text-anchor="start" x="300.7251" y="-15.4" font-family="sans-serif" font-size="14.00" fill="#000000"> &#160;Module</text>
<polygon fill="#80b1d3" stroke="transparent" points="363,-10 363,-30 383,-30 383,-10 363,-10"/>
<text text-anchor="start" x="386.7812" y="-15.4" font-family="sans-serif" font-size="14.00" fill="#000000"> &#160;Bootstrap</text>
<polygon fill="#fdb462" stroke="transparent" points="460,-10 460,-30 480,-30 480,-10 460,-10"/>
<text text-anchor="start" x="483.6732" y="-15.4" font-family="sans-serif" font-size="14.00" fill="#000000"> &#160;Providers</text>
<polygon fill="#fb8072" stroke="transparent" points="556,-10 556,-30 576,-30 576,-10 556,-10"/>
<text text-anchor="start" x="579.7258" y="-15.4" font-family="sans-serif" font-size="14.00" fill="#000000"> &#160;Exports</text>
<g id="clust1" class="cluster">
<title>cluster_CoreModule</title>
<polygon fill="none" stroke="#000000" stroke-dasharray="1,5" points="8,-70 8,-268 788,-268 788,-70 8,-70"/>
</g>
<g id="clust2" class="cluster">
<title>cluster_CoreModule_declarations</title>
<polygon fill="none" stroke="#000000" points="146,-78 146,-130 780,-130 780,-78 146,-78"/>
</g>
<g id="clust7" class="cluster">
<title>cluster_CoreModule_imports</title>
<polygon fill="none" stroke="#000000" points="16,-78 16,-130 138,-130 138,-78 16,-78"/>
</g>
<g id="clust8" class="cluster">
<title>cluster_CoreModule_exports</title>
<polygon fill="none" stroke="#000000" points="170,-208 170,-260 602,-260 602,-208 170,-208"/>
</g>
<!-- LoginComponent -->
<g id="node1" class="node">
<title>LoginComponent</title>
<polygon fill="#ffffb3" stroke="#000000" points="772.2758,-122 657.7242,-122 657.7242,-86 772.2758,-86 772.2758,-122"/>
<text text-anchor="middle" x="715" y="-99.8" font-family="Times,serif" font-size="14.00" fill="#000000">LoginComponent</text>
</g>
<!-- CoreModule -->
<g id="node5" class="node">
<title>CoreModule</title>
<polygon fill="#8dd3c7" stroke="#000000" points="446.2619,-187 443.2619,-191 422.2619,-191 419.2619,-187 359.7381,-187 359.7381,-151 446.2619,-151 446.2619,-187"/>
<text text-anchor="middle" x="403" y="-164.8" font-family="Times,serif" font-size="14.00" fill="#000000">CoreModule</text>
</g>
<!-- LoginComponent&#45;&gt;CoreModule -->
<g id="edge1" class="edge">
<title>LoginComponent&#45;&gt;CoreModule</title>
<path fill="none" stroke="#000000" d="M715,-122.1061C715,-141.3391 715,-169 715,-169 715,-169 456.3823,-169 456.3823,-169"/>
<polygon fill="#000000" stroke="#000000" points="456.3823,-165.5001 446.3823,-169 456.3822,-172.5001 456.3823,-165.5001"/>
</g>
<!-- MessagesComponent -->
<g id="node2" class="node">
<title>MessagesComponent</title>
<polygon fill="#ffffb3" stroke="#000000" points="639.7548,-122 504.2452,-122 504.2452,-86 639.7548,-86 639.7548,-122"/>
<text text-anchor="middle" x="572" y="-99.8" font-family="Times,serif" font-size="14.00" fill="#000000">MessagesComponent</text>
</g>
<!-- MessagesComponent&#45;&gt;CoreModule -->
<g id="edge2" class="edge">
<title>MessagesComponent&#45;&gt;CoreModule</title>
<path fill="none" stroke="#000000" d="M549.1302,-122.027C549.1302,-138.3976 549.1302,-160 549.1302,-160 549.1302,-160 456.4482,-160 456.4482,-160"/>
<polygon fill="#000000" stroke="#000000" points="456.4483,-156.5001 446.4482,-160 456.4482,-163.5001 456.4483,-156.5001"/>
</g>
<!-- PageNotFoundComponent -->
<g id="node3" class="node">
<title>PageNotFoundComponent</title>
<polygon fill="#ffffb3" stroke="#000000" points="485.8243,-122 320.1757,-122 320.1757,-86 485.8243,-86 485.8243,-122"/>
<text text-anchor="middle" x="403" y="-99.8" font-family="Times,serif" font-size="14.00" fill="#000000">PageNotFoundComponent</text>
</g>
<!-- PageNotFoundComponent&#45;&gt;CoreModule -->
<g id="edge3" class="edge">
<title>PageNotFoundComponent&#45;&gt;CoreModule</title>
<path fill="none" stroke="#000000" d="M403,-122.1061C403,-122.1061 403,-140.991 403,-140.991"/>
<polygon fill="#000000" stroke="#000000" points="399.5001,-140.9909 403,-150.991 406.5001,-140.991 399.5001,-140.9909"/>
</g>
<!-- TopToolbarComponent -->
<g id="node4" class="node">
<title>TopToolbarComponent</title>
<polygon fill="#ffffb3" stroke="#000000" points="302.2035,-122 153.7965,-122 153.7965,-86 302.2035,-86 302.2035,-122"/>
<text text-anchor="middle" x="228" y="-99.8" font-family="Times,serif" font-size="14.00" fill="#000000">TopToolbarComponent</text>
</g>
<!-- TopToolbarComponent&#45;&gt;CoreModule -->
<g id="edge4" class="edge">
<title>TopToolbarComponent&#45;&gt;CoreModule</title>
<path fill="none" stroke="#000000" d="M240.125,-122.027C240.125,-138.3976 240.125,-160 240.125,-160 240.125,-160 349.3525,-160 349.3525,-160"/>
<polygon fill="#000000" stroke="#000000" points="349.3525,-163.5001 359.3525,-160 349.3525,-156.5001 349.3525,-163.5001"/>
</g>
<!-- LoginComponent  -->
<g id="node7" class="node">
<title>LoginComponent </title>
<polygon fill="#fb8072" stroke="#000000" points="594.2759,-252 475.7241,-252 475.7241,-216 594.2759,-216 594.2759,-252"/>
<text text-anchor="middle" x="535" y="-229.8" font-family="Times,serif" font-size="14.00" fill="#000000">LoginComponent </text>
</g>
<!-- CoreModule&#45;&gt;LoginComponent  -->
<g id="edge6" class="edge">
<title>CoreModule&#45;&gt;LoginComponent </title>
<path fill="none" stroke="#000000" stroke-dasharray="5,2" d="M446.4282,-178C464.2405,-178 480.7621,-178 480.7621,-178 480.7621,-178 480.7621,-205.973 480.7621,-205.973"/>
<polygon fill="#000000" stroke="#000000" points="477.2622,-205.973 480.7621,-215.973 484.2622,-205.973 477.2622,-205.973"/>
</g>
<!-- MaterialModule  -->
<g id="node8" class="node">
<title>MaterialModule </title>
<polygon fill="#fb8072" stroke="#000000" points="458.4716,-252 347.5284,-252 347.5284,-216 458.4716,-216 458.4716,-252"/>
<text text-anchor="middle" x="403" y="-229.8" font-family="Times,serif" font-size="14.00" fill="#000000">MaterialModule </text>
</g>
<!-- CoreModule&#45;&gt;MaterialModule  -->
<g id="edge7" class="edge">
<title>CoreModule&#45;&gt;MaterialModule </title>
<path fill="none" stroke="#000000" stroke-dasharray="5,2" d="M403,-187.1061C403,-187.1061 403,-205.991 403,-205.991"/>
<polygon fill="#000000" stroke="#000000" points="399.5001,-205.9909 403,-215.991 406.5001,-205.991 399.5001,-205.9909"/>
</g>
<!-- TopToolbarComponent  -->
<g id="node9" class="node">
<title>TopToolbarComponent </title>
<polygon fill="#fb8072" stroke="#000000" points="329.7037,-252 178.2963,-252 178.2963,-216 329.7037,-216 329.7037,-252"/>
<text text-anchor="middle" x="254" y="-229.8" font-family="Times,serif" font-size="14.00" fill="#000000">TopToolbarComponent </text>
</g>
<!-- CoreModule&#45;&gt;TopToolbarComponent  -->
<g id="edge8" class="edge">
<title>CoreModule&#45;&gt;TopToolbarComponent </title>
<path fill="none" stroke="#000000" stroke-dasharray="5,2" d="M359.492,-178C341.6468,-178 325.0949,-178 325.0949,-178 325.0949,-178 325.0949,-205.973 325.0949,-205.973"/>
<polygon fill="#000000" stroke="#000000" points="321.5949,-205.973 325.0949,-215.973 328.5949,-205.973 321.5949,-205.973"/>
</g>
<!-- MaterialModule -->
<g id="node6" class="node">
<title>MaterialModule</title>
<polygon fill="#8dd3c7" stroke="#000000" points="130.4706,-122 127.4706,-126 106.4706,-126 103.4706,-122 23.5294,-122 23.5294,-86 130.4706,-86 130.4706,-122"/>
<text text-anchor="middle" x="77" y="-99.8" font-family="Times,serif" font-size="14.00" fill="#000000">MaterialModule</text>
</g>
<!-- MaterialModule&#45;&gt;CoreModule -->
<g id="edge5" class="edge">
<title>MaterialModule&#45;&gt;CoreModule</title>
<path fill="none" stroke="#000000" d="M77,-122.1061C77,-141.3391 77,-169 77,-169 77,-169 349.7097,-169 349.7097,-169"/>
<polygon fill="#000000" stroke="#000000" points="349.7098,-172.5001 359.7097,-169 349.7097,-165.5001 349.7098,-172.5001"/>
</g>
</g>
</svg>
