<?xml version="1.0" encoding="UTF-8" standalone="no"?>
<!DOCTYPE svg PUBLIC "-//W3C//DTD SVG 1.1//EN"
 "http://www.w3.org/Graphics/SVG/1.1/DTD/svg11.dtd">
<!-- Generated by graphviz version 2.40.1 (20161225.0304)
 -->
<!-- Title: dependencies Pages: 1 -->
<svg width="504pt" height="284pt"
 viewBox="0.00 0.00 504.00 284.00" xmlns="http://www.w3.org/2000/svg" xmlns:xlink="http://www.w3.org/1999/xlink">
<g id="graph0" class="graph" transform="scale(1 1) rotate(0) translate(4 280)">
<title>dependencies</title>
<polygon fill="#ffffff" stroke="transparent" points="-4,4 -4,-280 500,-280 500,4 -4,4"/>
<text text-anchor="start" x="227.0091" y="-42.4" font-family="sans-serif" font-weight="bold" font-size="14.00" fill="#000000">Legend</text>
<polygon fill="#ffffb3" stroke="transparent" points="14,-10 14,-30 34,-30 34,-10 14,-10"/>
<text text-anchor="start" x="37.629" y="-15.4" font-family="sans-serif" font-size="14.00" fill="#000000"> &#160;Declarations</text>
<polygon fill="#8dd3c7" stroke="transparent" points="127,-10 127,-30 147,-30 147,-10 127,-10"/>
<text text-anchor="start" x="150.7251" y="-15.4" font-family="sans-serif" font-size="14.00" fill="#000000"> &#160;Module</text>
<polygon fill="#80b1d3" stroke="transparent" points="213,-10 213,-30 233,-30 233,-10 213,-10"/>
<text text-anchor="start" x="236.7812" y="-15.4" font-family="sans-serif" font-size="14.00" fill="#000000"> &#160;Bootstrap</text>
<polygon fill="#fdb462" stroke="transparent" points="310,-10 310,-30 330,-30 330,-10 310,-10"/>
<text text-anchor="start" x="333.6732" y="-15.4" font-family="sans-serif" font-size="14.00" fill="#000000"> &#160;Providers</text>
<polygon fill="#fb8072" stroke="transparent" points="406,-10 406,-30 426,-30 426,-10 406,-10"/>
<text text-anchor="start" x="429.7258" y="-15.4" font-family="sans-serif" font-size="14.00" fill="#000000"> &#160;Exports</text>
<g id="clust1" class="cluster">
<title>cluster_SharedModule</title>
<polygon fill="none" stroke="#000000" stroke-dasharray="1,5" points="18,-70 18,-268 478,-268 478,-70 18,-70"/>
</g>
<g id="clust2" class="cluster">
<title>cluster_SharedModule_declarations</title>
<polygon fill="none" stroke="#000000" points="136,-78 136,-130 470,-130 470,-78 136,-78"/>
</g>
<g id="clust5" class="cluster">
<title>cluster_SharedModule_imports</title>
<polygon fill="none" stroke="#000000" points="26,-78 26,-130 128,-130 128,-78 26,-78"/>
</g>
<g id="clust6" class="cluster">
<title>cluster_SharedModule_exports</title>
<polygon fill="none" stroke="#000000" points="140,-208 140,-260 304,-260 304,-208 140,-208"/>
</g>
<!-- NumbersonlyDirective -->
<g id="node1" class="node">
<title>NumbersonlyDirective</title>
<polygon fill="#ffffb3" stroke="#000000" points="462.2907,-122 317.7093,-122 317.7093,-86 462.2907,-86 462.2907,-122"/>
<text text-anchor="middle" x="390" y="-99.8" font-family="Times,serif" font-size="14.00" fill="#000000">NumbersonlyDirective</text>
</g>
<!-- SharedModule -->
<g id="node3" class="node">
<title>SharedModule</title>
<polygon fill="#8dd3c7" stroke="#000000" points="271.4231,-187 268.4231,-191 247.4231,-191 244.4231,-187 172.5769,-187 172.5769,-151 271.4231,-151 271.4231,-187"/>
<text text-anchor="middle" x="222" y="-164.8" font-family="Times,serif" font-size="14.00" fill="#000000">SharedModule</text>
</g>
<!-- NumbersonlyDirective&#45;&gt;SharedModule -->
<g id="edge1" class="edge">
<title>NumbersonlyDirective&#45;&gt;SharedModule</title>
<path fill="none" stroke="#000000" d="M390,-122.1061C390,-141.3391 390,-169 390,-169 390,-169 281.4969,-169 281.4969,-169"/>
<polygon fill="#000000" stroke="#000000" points="281.4969,-165.5001 271.4969,-169 281.4969,-172.5001 281.4969,-165.5001"/>
</g>
<!-- ValidUsernameDirective -->
<g id="node2" class="node">
<title>ValidUsernameDirective</title>
<polygon fill="#ffffb3" stroke="#000000" points="299.9314,-122 144.0686,-122 144.0686,-86 299.9314,-86 299.9314,-122"/>
<text text-anchor="middle" x="222" y="-99.8" font-family="Times,serif" font-size="14.00" fill="#000000">ValidUsernameDirective</text>
</g>
<!-- ValidUsernameDirective&#45;&gt;SharedModule -->
<g id="edge2" class="edge">
<title>ValidUsernameDirective&#45;&gt;SharedModule</title>
<path fill="none" stroke="#000000" d="M222,-122.1061C222,-122.1061 222,-140.991 222,-140.991"/>
<polygon fill="#000000" stroke="#000000" points="218.5001,-140.9909 222,-150.991 225.5001,-140.991 218.5001,-140.9909"/>
</g>
<!-- NumbersonlyDirective  -->
<g id="node5" class="node">
<title>NumbersonlyDirective </title>
<polygon fill="#fb8072" stroke="#000000" points="295.7905,-252 148.2095,-252 148.2095,-216 295.7905,-216 295.7905,-252"/>
<text text-anchor="middle" x="222" y="-229.8" font-family="Times,serif" font-size="14.00" fill="#000000">NumbersonlyDirective </text>
</g>
<!-- SharedModule&#45;&gt;NumbersonlyDirective  -->
<g id="edge4" class="edge">
<title>SharedModule&#45;&gt;NumbersonlyDirective </title>
<path fill="none" stroke="#000000" stroke-dasharray="5,2" d="M222,-187.1061C222,-187.1061 222,-205.991 222,-205.991"/>
<polygon fill="#000000" stroke="#000000" points="218.5001,-205.9909 222,-215.991 225.5001,-205.991 218.5001,-205.9909"/>
</g>
<!-- CoreModule -->
<g id="node4" class="node">
<title>CoreModule</title>
<polygon fill="#8dd3c7" stroke="#000000" points="120.2619,-122 117.2619,-126 96.2619,-126 93.2619,-122 33.7381,-122 33.7381,-86 120.2619,-86 120.2619,-122"/>
<text text-anchor="middle" x="77" y="-99.8" font-family="Times,serif" font-size="14.00" fill="#000000">CoreModule</text>
</g>
<!-- CoreModule&#45;&gt;SharedModule -->
<g id="edge3" class="edge">
<title>CoreModule&#45;&gt;SharedModule</title>
<path fill="none" stroke="#000000" d="M77,-122.1061C77,-141.3391 77,-169 77,-169 77,-169 162.5048,-169 162.5048,-169"/>
<polygon fill="#000000" stroke="#000000" points="162.5048,-172.5001 172.5048,-169 162.5047,-165.5001 162.5048,-172.5001"/>
</g>
</g>
</svg>
