<?xml version="1.0" encoding="UTF-8" standalone="no"?>
<!DOCTYPE svg PUBLIC "-//W3C//DTD SVG 1.1//EN"
 "http://www.w3.org/Graphics/SVG/1.1/DTD/svg11.dtd">
<!-- Generated by graphviz version 2.40.1 (20161225.0304)
 -->
<!-- Title: dependencies Pages: 1 -->
<svg width="713pt" height="211pt"
 viewBox="0.00 0.00 713.00 211.00" xmlns="http://www.w3.org/2000/svg" xmlns:xlink="http://www.w3.org/1999/xlink">
<g id="graph0" class="graph" transform="scale(1 1) rotate(0) translate(4 207)">
<title>dependencies</title>
<polygon fill="#ffffff" stroke="transparent" points="-4,4 -4,-207 709,-207 709,4 -4,4"/>
<text text-anchor="start" x="331.5091" y="-42.4" font-family="sans-serif" font-weight="bold" font-size="14.00" fill="#000000">Legend</text>
<polygon fill="#ffffb3" stroke="transparent" points="118.5,-10 118.5,-30 138.5,-30 138.5,-10 118.5,-10"/>
<text text-anchor="start" x="142.129" y="-15.4" font-family="sans-serif" font-size="14.00" fill="#000000"> &#160;Declarations</text>
<polygon fill="#8dd3c7" stroke="transparent" points="231.5,-10 231.5,-30 251.5,-30 251.5,-10 231.5,-10"/>
<text text-anchor="start" x="255.2251" y="-15.4" font-family="sans-serif" font-size="14.00" fill="#000000"> &#160;Module</text>
<polygon fill="#80b1d3" stroke="transparent" points="317.5,-10 317.5,-30 337.5,-30 337.5,-10 317.5,-10"/>
<text text-anchor="start" x="341.2812" y="-15.4" font-family="sans-serif" font-size="14.00" fill="#000000"> &#160;Bootstrap</text>
<polygon fill="#fdb462" stroke="transparent" points="414.5,-10 414.5,-30 434.5,-30 434.5,-10 414.5,-10"/>
<text text-anchor="start" x="438.1732" y="-15.4" font-family="sans-serif" font-size="14.00" fill="#000000"> &#160;Providers</text>
<polygon fill="#fb8072" stroke="transparent" points="510.5,-10 510.5,-30 530.5,-30 530.5,-10 510.5,-10"/>
<text text-anchor="start" x="534.2258" y="-15.4" font-family="sans-serif" font-size="14.00" fill="#000000"> &#160;Exports</text>
<g id="clust1" class="cluster">
<title>cluster_PersonalDashboardModule</title>
<polygon fill="none" stroke="#000000" stroke-dasharray="1,5" points="8,-70 8,-195 697,-195 697,-70 8,-70"/>
</g>
<g id="clust2" class="cluster">
<title>cluster_PersonalDashboardModule_declarations</title>
<polygon fill="none" stroke="#000000" points="483,-78 483,-130 689,-130 689,-78 483,-78"/>
</g>
<g id="clust4" class="cluster">
<title>cluster_PersonalDashboardModule_imports</title>
<polygon fill="none" stroke="#000000" points="16,-78 16,-130 475,-130 475,-78 16,-78"/>
</g>
<!-- PersonalDashboardComponent -->
<g id="node1" class="node">
<title>PersonalDashboardComponent</title>
<polygon fill="#ffffb3" stroke="#000000" points="681.1811,-122 490.8189,-122 490.8189,-86 681.1811,-86 681.1811,-122"/>
<text text-anchor="middle" x="586" y="-99.8" font-family="Times,serif" font-size="14.00" fill="#000000">PersonalDashboardComponent</text>
</g>
<!-- PersonalDashboardModule -->
<g id="node2" class="node">
<title>PersonalDashboardModule</title>
<polygon fill="#8dd3c7" stroke="#000000" points="450.3989,-187 447.3989,-191 426.3989,-191 423.3989,-187 281.6011,-187 281.6011,-151 450.3989,-151 450.3989,-187"/>
<text text-anchor="middle" x="366" y="-164.8" font-family="Times,serif" font-size="14.00" fill="#000000">PersonalDashboardModule</text>
</g>
<!-- PersonalDashboardComponent&#45;&gt;PersonalDashboardModule -->
<g id="edge1" class="edge">
<title>PersonalDashboardComponent&#45;&gt;PersonalDashboardModule</title>
<path fill="none" stroke="#000000" d="M586,-122.1061C586,-141.3391 586,-169 586,-169 586,-169 460.4286,-169 460.4286,-169"/>
<polygon fill="#000000" stroke="#000000" points="460.4286,-165.5001 450.4286,-169 460.4285,-172.5001 460.4286,-165.5001"/>
</g>
<!-- CoreModule -->
<g id="node3" class="node">
<title>CoreModule</title>
<polygon fill="#8dd3c7" stroke="#000000" points="467.2619,-122 464.2619,-126 443.2619,-126 440.2619,-122 380.7381,-122 380.7381,-86 467.2619,-86 467.2619,-122"/>
<text text-anchor="middle" x="424" y="-99.8" font-family="Times,serif" font-size="14.00" fill="#000000">CoreModule</text>
</g>
<!-- CoreModule&#45;&gt;PersonalDashboardModule -->
<g id="edge2" class="edge">
<title>CoreModule&#45;&gt;PersonalDashboardModule</title>
<path fill="none" stroke="#000000" d="M415.4092,-122.1061C415.4092,-122.1061 415.4092,-140.991 415.4092,-140.991"/>
<polygon fill="#000000" stroke="#000000" points="411.9093,-140.9909 415.4092,-150.991 418.9093,-140.991 411.9093,-140.9909"/>
</g>
<!-- FeaturesModule -->
<g id="node4" class="node">
<title>FeaturesModule</title>
<polygon fill="#8dd3c7" stroke="#000000" points="362.472,-122 359.472,-126 338.472,-126 335.472,-122 255.528,-122 255.528,-86 362.472,-86 362.472,-122"/>
<text text-anchor="middle" x="309" y="-99.8" font-family="Times,serif" font-size="14.00" fill="#000000">FeaturesModule</text>
</g>
<!-- FeaturesModule&#45;&gt;PersonalDashboardModule -->
<g id="edge3" class="edge">
<title>FeaturesModule&#45;&gt;PersonalDashboardModule</title>
<path fill="none" stroke="#000000" d="M322.1434,-122.1061C322.1434,-122.1061 322.1434,-140.991 322.1434,-140.991"/>
<polygon fill="#000000" stroke="#000000" points="318.6435,-140.9909 322.1434,-150.991 325.6435,-140.991 318.6435,-140.9909"/>
</g>
<!-- PersonalDashboardRoutingModule -->
<g id="node5" class="node">
<title>PersonalDashboardRoutingModule</title>
<polygon fill="#8dd3c7" stroke="#000000" points="237.5167,-122 234.5167,-126 213.5167,-126 210.5167,-122 24.4833,-122 24.4833,-86 237.5167,-86 237.5167,-122"/>
<text text-anchor="middle" x="131" y="-99.8" font-family="Times,serif" font-size="14.00" fill="#000000">PersonalDashboardRoutingModule</text>
</g>
<!-- PersonalDashboardRoutingModule&#45;&gt;PersonalDashboardModule -->
<g id="edge4" class="edge">
<title>PersonalDashboardRoutingModule&#45;&gt;PersonalDashboardModule</title>
<path fill="none" stroke="#000000" d="M131,-122.1061C131,-141.3391 131,-169 131,-169 131,-169 271.4916,-169 271.4916,-169"/>
<polygon fill="#000000" stroke="#000000" points="271.4917,-172.5001 281.4916,-169 271.4916,-165.5001 271.4917,-172.5001"/>
</g>
</g>
</svg>
