<?xml version="1.0" encoding="UTF-8" standalone="no"?>
<!DOCTYPE svg PUBLIC "-//W3C//DTD SVG 1.1//EN"
 "http://www.w3.org/Graphics/SVG/1.1/DTD/svg11.dtd">
<!-- Generated by graphviz version 2.40.1 (20161225.0304)
 -->
<!-- Title: dependencies Pages: 1 -->
<svg width="871pt" height="284pt"
 viewBox="0.00 0.00 871.00 284.00" xmlns="http://www.w3.org/2000/svg" xmlns:xlink="http://www.w3.org/1999/xlink">
<g id="graph0" class="graph" transform="scale(1 1) rotate(0) translate(4 280)">
<title>dependencies</title>
<polygon fill="#ffffff" stroke="transparent" points="-4,4 -4,-280 867,-280 867,4 -4,4"/>
<text text-anchor="start" x="410.5091" y="-42.4" font-family="sans-serif" font-weight="bold" font-size="14.00" fill="#000000">Legend</text>
<polygon fill="#ffffb3" stroke="transparent" points="197.5,-10 197.5,-30 217.5,-30 217.5,-10 197.5,-10"/>
<text text-anchor="start" x="221.129" y="-15.4" font-family="sans-serif" font-size="14.00" fill="#000000"> &#160;Declarations</text>
<polygon fill="#8dd3c7" stroke="transparent" points="310.5,-10 310.5,-30 330.5,-30 330.5,-10 310.5,-10"/>
<text text-anchor="start" x="334.2251" y="-15.4" font-family="sans-serif" font-size="14.00" fill="#000000"> &#160;Module</text>
<polygon fill="#80b1d3" stroke="transparent" points="396.5,-10 396.5,-30 416.5,-30 416.5,-10 396.5,-10"/>
<text text-anchor="start" x="420.2812" y="-15.4" font-family="sans-serif" font-size="14.00" fill="#000000"> &#160;Bootstrap</text>
<polygon fill="#fdb462" stroke="transparent" points="493.5,-10 493.5,-30 513.5,-30 513.5,-10 493.5,-10"/>
<text text-anchor="start" x="517.1732" y="-15.4" font-family="sans-serif" font-size="14.00" fill="#000000"> &#160;Providers</text>
<polygon fill="#fb8072" stroke="transparent" points="589.5,-10 589.5,-30 609.5,-30 609.5,-10 589.5,-10"/>
<text text-anchor="start" x="613.2258" y="-15.4" font-family="sans-serif" font-size="14.00" fill="#000000"> &#160;Exports</text>
<g id="clust1" class="cluster">
<title>cluster_AppModule</title>
<polygon fill="none" stroke="#000000" stroke-dasharray="1,5" points="8,-70 8,-268 855,-268 855,-70 8,-70"/>
</g>
<g id="clust2" class="cluster">
<title>cluster_AppModule_declarations</title>
<polygon fill="none" stroke="#000000" points="725,-78 725,-130 847,-130 847,-78 725,-78"/>
</g>
<g id="clust4" class="cluster">
<title>cluster_AppModule_imports</title>
<polygon fill="none" stroke="#000000" points="226,-78 226,-130 717,-130 717,-78 226,-78"/>
</g>
<g id="clust6" class="cluster">
<title>cluster_AppModule_bootstrap</title>
<polygon fill="none" stroke="#000000" points="399,-208 399,-260 523,-260 523,-208 399,-208"/>
</g>
<g id="clust7" class="cluster">
<title>cluster_AppModule_providers</title>
<polygon fill="none" stroke="#000000" points="16,-78 16,-130 218,-130 218,-78 16,-78"/>
</g>
<!-- AppComponent -->
<g id="node1" class="node">
<title>AppComponent</title>
<polygon fill="#ffffb3" stroke="#000000" points="838.9399,-122 733.0601,-122 733.0601,-86 838.9399,-86 838.9399,-122"/>
<text text-anchor="middle" x="786" y="-99.8" font-family="Times,serif" font-size="14.00" fill="#000000">AppComponent</text>
</g>
<!-- AppModule -->
<g id="node2" class="node">
<title>AppModule</title>
<polygon fill="#8dd3c7" stroke="#000000" points="502.6571,-187 499.6571,-191 478.6571,-191 475.6571,-187 419.3429,-187 419.3429,-151 502.6571,-151 502.6571,-187"/>
<text text-anchor="middle" x="461" y="-164.8" font-family="Times,serif" font-size="14.00" fill="#000000">AppModule</text>
</g>
<!-- AppComponent&#45;&gt;AppModule -->
<g id="edge1" class="edge">
<title>AppComponent&#45;&gt;AppModule</title>
<path fill="none" stroke="#000000" d="M786,-122.2843C786,-143.3211 786,-175 786,-175 786,-175 512.8227,-175 512.8227,-175"/>
<polygon fill="#000000" stroke="#000000" points="512.8228,-171.5001 502.8227,-175 512.8227,-178.5001 512.8228,-171.5001"/>
</g>
<!-- AppComponent  -->
<g id="node7" class="node">
<title>AppComponent </title>
<polygon fill="#80b1d3" stroke="#000000" points="515.439,-252 406.561,-252 406.561,-216 515.439,-216 515.439,-252"/>
<text text-anchor="middle" x="461" y="-229.8" font-family="Times,serif" font-size="14.00" fill="#000000">AppComponent </text>
</g>
<!-- AppModule&#45;&gt;AppComponent  -->
<g id="edge6" class="edge">
<title>AppModule&#45;&gt;AppComponent </title>
<path fill="none" stroke="#000000" stroke-dasharray="1,5" d="M461,-187.1061C461,-187.1061 461,-205.991 461,-205.991"/>
<polygon fill="#000000" stroke="#000000" points="457.5001,-205.9909 461,-215.991 464.5001,-205.991 457.5001,-205.9909"/>
</g>
<!-- AppRoutingModule -->
<g id="node3" class="node">
<title>AppRoutingModule</title>
<polygon fill="#8dd3c7" stroke="#000000" points="709.2744,-122 706.2744,-126 685.2744,-126 682.2744,-122 580.7256,-122 580.7256,-86 709.2744,-86 709.2744,-122"/>
<text text-anchor="middle" x="645" y="-99.8" font-family="Times,serif" font-size="14.00" fill="#000000">AppRoutingModule</text>
</g>
<!-- AppRoutingModule&#45;&gt;AppModule -->
<g id="edge2" class="edge">
<title>AppRoutingModule&#45;&gt;AppModule</title>
<path fill="none" stroke="#000000" d="M645,-122.0225C645,-139.3734 645,-163 645,-163 645,-163 512.7524,-163 512.7524,-163"/>
<polygon fill="#000000" stroke="#000000" points="512.7525,-159.5001 502.7524,-163 512.7524,-166.5001 512.7525,-159.5001"/>
</g>
<!-- CoreModule -->
<g id="node4" class="node">
<title>CoreModule</title>
<polygon fill="#8dd3c7" stroke="#000000" points="562.2619,-122 559.2619,-126 538.2619,-126 535.2619,-122 475.7381,-122 475.7381,-86 562.2619,-86 562.2619,-122"/>
<text text-anchor="middle" x="519" y="-99.8" font-family="Times,serif" font-size="14.00" fill="#000000">CoreModule</text>
</g>
<!-- CoreModule&#45;&gt;AppModule -->
<g id="edge3" class="edge">
<title>CoreModule&#45;&gt;AppModule</title>
<path fill="none" stroke="#000000" d="M489.2237,-122.1061C489.2237,-122.1061 489.2237,-140.991 489.2237,-140.991"/>
<polygon fill="#000000" stroke="#000000" points="485.7238,-140.9909 489.2237,-150.991 492.7238,-140.991 485.7238,-140.9909"/>
</g>
<!-- FeaturesModule -->
<g id="node5" class="node">
<title>FeaturesModule</title>
<polygon fill="#8dd3c7" stroke="#000000" points="457.472,-122 454.472,-126 433.472,-126 430.472,-122 350.528,-122 350.528,-86 457.472,-86 457.472,-122"/>
<text text-anchor="middle" x="404" y="-99.8" font-family="Times,serif" font-size="14.00" fill="#000000">FeaturesModule</text>
</g>
<!-- FeaturesModule&#45;&gt;AppModule -->
<g id="edge4" class="edge">
<title>FeaturesModule&#45;&gt;AppModule</title>
<path fill="none" stroke="#000000" d="M438.3289,-122.1061C438.3289,-122.1061 438.3289,-140.991 438.3289,-140.991"/>
<polygon fill="#000000" stroke="#000000" points="434.829,-140.9909 438.3289,-150.991 441.829,-140.991 434.829,-140.9909"/>
</g>
<!-- SharedModule -->
<g id="node6" class="node">
<title>SharedModule</title>
<polygon fill="#8dd3c7" stroke="#000000" points="332.4231,-122 329.4231,-126 308.4231,-126 305.4231,-122 233.5769,-122 233.5769,-86 332.4231,-86 332.4231,-122"/>
<text text-anchor="middle" x="283" y="-99.8" font-family="Times,serif" font-size="14.00" fill="#000000">SharedModule</text>
</g>
<!-- SharedModule&#45;&gt;AppModule -->
<g id="edge5" class="edge">
<title>SharedModule&#45;&gt;AppModule</title>
<path fill="none" stroke="#000000" d="M283,-122.0225C283,-139.3734 283,-163 283,-163 283,-163 409.2669,-163 409.2669,-163"/>
<polygon fill="#000000" stroke="#000000" points="409.2669,-166.5001 419.2669,-163 409.2669,-159.5001 409.2669,-166.5001"/>
</g>
<!-- HttpMockInterceptor -->
<g id="node8" class="node">
<title>HttpMockInterceptor</title>
<ellipse fill="#fdb462" stroke="#000000" cx="117" cy="-104" rx="93.1774" ry="18"/>
<text text-anchor="middle" x="117" y="-99.8" font-family="Times,serif" font-size="14.00" fill="#000000">HttpMockInterceptor</text>
</g>
<!-- HttpMockInterceptor&#45;&gt;AppModule -->
<g id="edge7" class="edge">
<title>HttpMockInterceptor&#45;&gt;AppModule</title>
<path fill="none" stroke="#000000" d="M117,-122.2843C117,-143.3211 117,-175 117,-175 117,-175 409.1628,-175 409.1628,-175"/>
<polygon fill="#000000" stroke="#000000" points="409.1628,-178.5001 419.1628,-175 409.1627,-171.5001 409.1628,-178.5001"/>
</g>
</g>
</svg>
