<?xml version="1.0" encoding="UTF-8" standalone="no"?>
<!DOCTYPE svg PUBLIC "-//W3C//DTD SVG 1.1//EN"
 "http://www.w3.org/Graphics/SVG/1.1/DTD/svg11.dtd">
<!-- Generated by graphviz version 2.40.1 (20161225.0304)
 -->
<!-- Title: dependencies Pages: 1 -->
<svg width="2750pt" height="496pt"
 viewBox="0.00 0.00 2750.00 496.00" xmlns="http://www.w3.org/2000/svg" xmlns:xlink="http://www.w3.org/1999/xlink">
<g id="graph0" class="graph" transform="scale(1 1) rotate(0) translate(4 492)">
<title>dependencies</title>
<polygon fill="#ffffff" stroke="transparent" points="-4,4 -4,-492 2746,-492 2746,4 -4,4"/>
<text text-anchor="start" x="1350.0091" y="-42.4" font-family="sans-serif" font-weight="bold" font-size="14.00" fill="#000000">Legend</text>
<polygon fill="#ffffb3" stroke="transparent" points="1137,-10 1137,-30 1157,-30 1157,-10 1137,-10"/>
<text text-anchor="start" x="1160.629" y="-15.4" font-family="sans-serif" font-size="14.00" fill="#000000"> &#160;Declarations</text>
<polygon fill="#8dd3c7" stroke="transparent" points="1250,-10 1250,-30 1270,-30 1270,-10 1250,-10"/>
<text text-anchor="start" x="1273.7251" y="-15.4" font-family="sans-serif" font-size="14.00" fill="#000000"> &#160;Module</text>
<polygon fill="#80b1d3" stroke="transparent" points="1336,-10 1336,-30 1356,-30 1356,-10 1336,-10"/>
<text text-anchor="start" x="1359.7812" y="-15.4" font-family="sans-serif" font-size="14.00" fill="#000000"> &#160;Bootstrap</text>
<polygon fill="#fdb462" stroke="transparent" points="1433,-10 1433,-30 1453,-30 1453,-10 1433,-10"/>
<text text-anchor="start" x="1456.6732" y="-15.4" font-family="sans-serif" font-size="14.00" fill="#000000"> &#160;Providers</text>
<polygon fill="#fb8072" stroke="transparent" points="1529,-10 1529,-30 1549,-30 1549,-10 1529,-10"/>
<text text-anchor="start" x="1552.7258" y="-15.4" font-family="sans-serif" font-size="14.00" fill="#000000"> &#160;Exports</text>
<g id="clust1" class="cluster">
<title>cluster_AppModule</title>
<polygon fill="none" stroke="#000000" stroke-dasharray="1,5" points="538,-146 538,-480 1177,-480 1177,-146 538,-146"/>
</g>
<g id="clust2" class="cluster">
<title>cluster_AppModule_declarations</title>
<polygon fill="none" stroke="#000000" points="790,-284 790,-336 912,-336 912,-284 790,-284"/>
</g>
<g id="clust4" class="cluster">
<title>cluster_AppModule_imports</title>
<polygon fill="none" stroke="#000000" points="920,-154 920,-336 1169,-336 1169,-154 920,-154"/>
</g>
<g id="clust6" class="cluster">
<title>cluster_AppModule_bootstrap</title>
<polygon fill="none" stroke="#000000" points="753,-420 753,-472 877,-472 877,-420 753,-420"/>
</g>
<g id="clust7" class="cluster">
<title>cluster_AppModule_providers</title>
<polygon fill="none" stroke="#000000" points="546,-284 546,-336 748,-336 748,-284 546,-284"/>
</g>
<g id="clust14" class="cluster">
<title>cluster_CoreModule</title>
<polygon fill="none" stroke="#000000" stroke-dasharray="1,5" points="533,-70 533,-138 1753,-138 1753,-70 533,-70"/>
</g>
<g id="clust15" class="cluster">
<title>cluster_CoreModule_declarations</title>
<polygon fill="none" stroke="#000000" points="1111,-78 1111,-130 1745,-130 1745,-78 1111,-78"/>
</g>
<g id="clust20" class="cluster">
<title>cluster_CoreModule_imports</title>
<polygon fill="none" stroke="#000000" points="981,-78 981,-130 1103,-130 1103,-78 981,-78"/>
</g>
<g id="clust21" class="cluster">
<title>cluster_CoreModule_exports</title>
<polygon fill="none" stroke="#000000" points="541,-78 541,-130 973,-130 973,-78 541,-78"/>
</g>
<g id="clust24" class="cluster">
<title>cluster_FeaturesModule</title>
<polygon fill="none" stroke="#000000" stroke-dasharray="1,5" points="1185,-344 1185,-412 2266,-412 2266,-344 1185,-344"/>
</g>
<g id="clust25" class="cluster">
<title>cluster_FeaturesModule_declarations</title>
<polygon fill="none" stroke="#000000" points="1735,-352 1735,-404 2258,-404 2258,-352 1735,-352"/>
</g>
<g id="clust30" class="cluster">
<title>cluster_FeaturesModule_exports</title>
<polygon fill="none" stroke="#000000" points="1193,-352 1193,-404 1727,-404 1727,-352 1193,-352"/>
</g>
<g id="clust33" class="cluster">
<title>cluster_HomeModule</title>
<polygon fill="none" stroke="#000000" stroke-dasharray="1,5" points="204,-276 204,-404 514,-404 514,-276 204,-276"/>
</g>
<g id="clust34" class="cluster">
<title>cluster_HomeModule_declarations</title>
<polygon fill="none" stroke="#000000" points="374,-284 374,-336 506,-336 506,-284 374,-284"/>
</g>
<g id="clust36" class="cluster">
<title>cluster_HomeModule_imports</title>
<polygon fill="none" stroke="#000000" points="212,-284 212,-336 366,-336 366,-284 212,-284"/>
</g>
<g id="clust52" class="cluster">
<title>cluster_PersonalDashboardModule</title>
<polygon fill="none" stroke="#000000" stroke-dasharray="1,5" points="2274,-276 2274,-404 2734,-404 2734,-276 2274,-276"/>
</g>
<g id="clust53" class="cluster">
<title>cluster_PersonalDashboardModule_declarations</title>
<polygon fill="none" stroke="#000000" points="2520,-284 2520,-336 2726,-336 2726,-284 2520,-284"/>
</g>
<g id="clust55" class="cluster">
<title>cluster_PersonalDashboardModule_imports</title>
<polygon fill="none" stroke="#000000" points="2282,-284 2282,-336 2512,-336 2512,-284 2282,-284"/>
</g>
<g id="clust65" class="cluster">
<title>cluster_SharedModule</title>
<polygon fill="none" stroke="#000000" stroke-dasharray="1,5" points="8,-146 8,-214 530,-214 530,-146 8,-146"/>
</g>
<g id="clust66" class="cluster">
<title>cluster_SharedModule_declarations</title>
<polygon fill="none" stroke="#000000" points="188,-154 188,-206 522,-206 522,-154 188,-154"/>
</g>
<g id="clust70" class="cluster">
<title>cluster_SharedModule_exports</title>
<polygon fill="none" stroke="#000000" points="16,-154 16,-206 180,-206 180,-154 16,-154"/>
</g>
<!-- AppComponent -->
<g id="node1" class="node">
<title>AppComponent</title>
<polygon fill="#ffffb3" stroke="#000000" points="903.9399,-328 798.0601,-328 798.0601,-292 903.9399,-292 903.9399,-328"/>
<text text-anchor="middle" x="851" y="-305.8" font-family="Times,serif" font-size="14.00" fill="#000000">AppComponent</text>
</g>
<!-- AppModule -->
<g id="node2" class="node">
<title>AppModule</title>
<polygon fill="#8dd3c7" stroke="#000000" points="856.6571,-396 853.6571,-400 832.6571,-400 829.6571,-396 773.3429,-396 773.3429,-360 856.6571,-360 856.6571,-396"/>
<text text-anchor="middle" x="815" y="-373.8" font-family="Times,serif" font-size="14.00" fill="#000000">AppModule</text>
</g>
<!-- AppComponent&#45;&gt;AppModule -->
<g id="edge1" class="edge">
<title>AppComponent&#45;&gt;AppModule</title>
<path fill="none" stroke="#000000" d="M827.5543,-328.2228C827.5543,-328.2228 827.5543,-349.7269 827.5543,-349.7269"/>
<polygon fill="#000000" stroke="#000000" points="824.0544,-349.7269 827.5543,-359.7269 831.0544,-349.727 824.0544,-349.7269"/>
</g>
<!-- AppComponent  -->
<g id="node7" class="node">
<title>AppComponent </title>
<polygon fill="#80b1d3" stroke="#000000" points="869.439,-464 760.561,-464 760.561,-428 869.439,-428 869.439,-464"/>
<text text-anchor="middle" x="815" y="-441.8" font-family="Times,serif" font-size="14.00" fill="#000000">AppComponent </text>
</g>
<!-- AppModule&#45;&gt;AppComponent  -->
<g id="edge6" class="edge">
<title>AppModule&#45;&gt;AppComponent </title>
<path fill="none" stroke="#000000" stroke-dasharray="1,5" d="M815,-396.2228C815,-396.2228 815,-417.7269 815,-417.7269"/>
<polygon fill="#000000" stroke="#000000" points="811.5001,-417.7269 815,-427.7269 818.5001,-417.727 811.5001,-417.7269"/>
</g>
<!-- AppRoutingModule -->
<g id="node3" class="node">
<title>AppRoutingModule</title>
<polygon fill="#8dd3c7" stroke="#000000" points="1056.2744,-198 1053.2744,-202 1032.2744,-202 1029.2744,-198 927.7256,-198 927.7256,-162 1056.2744,-162 1056.2744,-198"/>
<text text-anchor="middle" x="992" y="-175.8" font-family="Times,serif" font-size="14.00" fill="#000000">AppRoutingModule</text>
</g>
<!-- AppRoutingModule&#45;&gt;AppModule -->
<g id="edge2" class="edge">
<title>AppRoutingModule&#45;&gt;AppModule</title>
<path fill="none" stroke="#000000" d="M927.4957,-180C867.1857,-180 786.3514,-180 786.3514,-180 786.3514,-180 786.3514,-349.7275 786.3514,-349.7275"/>
<polygon fill="#000000" stroke="#000000" points="782.8515,-349.7275 786.3514,-359.7275 789.8515,-349.7276 782.8515,-349.7275"/>
</g>
<!-- CoreModule -->
<g id="node4" class="node">
<title>CoreModule</title>
<polygon fill="#8dd3c7" stroke="#000000" points="1161.2619,-198 1158.2619,-202 1137.2619,-202 1134.2619,-198 1074.7381,-198 1074.7381,-162 1161.2619,-162 1161.2619,-198"/>
<text text-anchor="middle" x="1118" y="-175.8" font-family="Times,serif" font-size="14.00" fill="#000000">CoreModule</text>
</g>
<!-- CoreModule&#45;&gt;AppModule -->
<g id="edge3" class="edge">
<title>CoreModule&#45;&gt;AppModule</title>
<path fill="none" stroke="#000000" d="M1109.3238,-198.1097C1109.3238,-207.897 1109.3238,-218 1109.3238,-218 1109.3238,-218 790.7446,-218 790.7446,-218 790.7446,-218 790.7446,-349.957 790.7446,-349.957"/>
<polygon fill="#000000" stroke="#000000" points="787.2447,-349.9569 790.7446,-359.957 794.2447,-349.957 787.2447,-349.9569"/>
</g>
<!-- FeaturesModule -->
<g id="node5" class="node">
<title>FeaturesModule</title>
<polygon fill="#8dd3c7" stroke="#000000" points="1161.472,-328 1158.472,-332 1137.472,-332 1134.472,-328 1054.528,-328 1054.528,-292 1161.472,-292 1161.472,-328"/>
<text text-anchor="middle" x="1108" y="-305.8" font-family="Times,serif" font-size="14.00" fill="#000000">FeaturesModule</text>
</g>
<!-- CoreModule&#45;&gt;FeaturesModule -->
<g id="edge19" class="edge">
<title>CoreModule&#45;&gt;FeaturesModule</title>
<path fill="none" stroke="#000000" d="M1144.0285,-198.0759C1144.0285,-198.0759 1144.0285,-281.6585 1144.0285,-281.6585"/>
<polygon fill="#000000" stroke="#000000" points="1140.5286,-281.6585 1144.0285,-291.6585 1147.5286,-281.6585 1140.5286,-281.6585"/>
</g>
<!-- SharedModule -->
<g id="node6" class="node">
<title>SharedModule</title>
<polygon fill="#8dd3c7" stroke="#000000" points="1026.4231,-263 1023.4231,-267 1002.4231,-267 999.4231,-263 927.5769,-263 927.5769,-227 1026.4231,-227 1026.4231,-263"/>
<text text-anchor="middle" x="977" y="-240.8" font-family="Times,serif" font-size="14.00" fill="#000000">SharedModule</text>
</g>
<!-- CoreModule&#45;&gt;SharedModule -->
<g id="edge34" class="edge">
<title>CoreModule&#45;&gt;SharedModule</title>
<path fill="none" stroke="#000000" d="M1126.6762,-198.0225C1126.6762,-215.3734 1126.6762,-239 1126.6762,-239 1126.6762,-239 1036.4244,-239 1036.4244,-239"/>
<polygon fill="#000000" stroke="#000000" points="1036.4244,-235.5001 1026.4244,-239 1036.4244,-242.5001 1036.4244,-235.5001"/>
</g>
<!-- LoginComponent  -->
<g id="node14" class="node">
<title>LoginComponent </title>
<polygon fill="#fb8072" stroke="#000000" points="795.2759,-122 676.7241,-122 676.7241,-86 795.2759,-86 795.2759,-122"/>
<text text-anchor="middle" x="736" y="-99.8" font-family="Times,serif" font-size="14.00" fill="#000000">LoginComponent </text>
</g>
<!-- CoreModule&#45;&gt;LoginComponent  -->
<g id="edge13" class="edge">
<title>CoreModule&#45;&gt;LoginComponent </title>
<path fill="none" stroke="#000000" stroke-dasharray="5,2" d="M1082.9656,-161.8903C1082.9656,-152.103 1082.9656,-142 1082.9656,-142 1082.9656,-142 777.565,-142 777.565,-142 777.565,-142 777.565,-132.1097 777.565,-132.1097"/>
<polygon fill="#000000" stroke="#000000" points="781.0651,-132.1096 777.565,-122.1097 774.0651,-132.1097 781.0651,-132.1096"/>
</g>
<!-- MaterialModule  -->
<g id="node15" class="node">
<title>MaterialModule </title>
<polygon fill="#fb8072" stroke="#000000" points="659.4716,-122 548.5284,-122 548.5284,-86 659.4716,-86 659.4716,-122"/>
<text text-anchor="middle" x="604" y="-99.8" font-family="Times,serif" font-size="14.00" fill="#000000">MaterialModule </text>
</g>
<!-- CoreModule&#45;&gt;MaterialModule  -->
<g id="edge14" class="edge">
<title>CoreModule&#45;&gt;MaterialModule </title>
<path fill="none" stroke="#000000" stroke-dasharray="5,2" d="M1078.7924,-161.793C1078.7924,-156.4451 1078.7924,-152 1078.7924,-152 1078.7924,-152 606.5733,-152 606.5733,-152 606.5733,-152 606.5733,-132.1467 606.5733,-132.1467"/>
<polygon fill="#000000" stroke="#000000" points="610.0734,-132.1467 606.5733,-122.1467 603.0734,-132.1468 610.0734,-132.1467"/>
</g>
<!-- TopToolbarComponent  -->
<g id="node16" class="node">
<title>TopToolbarComponent </title>
<polygon fill="#fb8072" stroke="#000000" points="964.7037,-122 813.2963,-122 813.2963,-86 964.7037,-86 964.7037,-122"/>
<text text-anchor="middle" x="889" y="-99.8" font-family="Times,serif" font-size="14.00" fill="#000000">TopToolbarComponent </text>
</g>
<!-- CoreModule&#45;&gt;TopToolbarComponent  -->
<g id="edge15" class="edge">
<title>CoreModule&#45;&gt;TopToolbarComponent </title>
<path fill="none" stroke="#000000" stroke-dasharray="5,2" d="M1087.1389,-161.8533C1087.1389,-148.2605 1087.1389,-132 1087.1389,-132 1087.1389,-132 946.2323,-132 946.2323,-132 946.2323,-132 946.2323,-131.0207 946.2323,-131.0207"/>
<polygon fill="#000000" stroke="#000000" points="949.7324,-132.2069 946.2323,-122.207 942.7324,-132.207 949.7324,-132.2069"/>
</g>
<!-- HomeModule -->
<g id="node24" class="node">
<title>HomeModule</title>
<polygon fill="#8dd3c7" stroke="#000000" points="495.7619,-396 492.7619,-400 471.7619,-400 468.7619,-396 402.2381,-396 402.2381,-360 495.7619,-360 495.7619,-396"/>
<text text-anchor="middle" x="449" y="-373.8" font-family="Times,serif" font-size="14.00" fill="#000000">HomeModule</text>
</g>
<!-- CoreModule&#45;&gt;HomeModule -->
<g id="edge25" class="edge">
<title>CoreModule&#45;&gt;HomeModule</title>
<path fill="none" stroke="#000000" d="M1091.9715,-198.207C1091.9715,-203.5549 1091.9715,-208 1091.9715,-208 1091.9715,-208 531.4549,-208 531.4549,-208 531.4549,-208 531.4549,-378 531.4549,-378 531.4549,-378 506.0081,-378 506.0081,-378"/>
<polygon fill="#000000" stroke="#000000" points="506.0081,-374.5001 496.0081,-378 506.0081,-381.5001 506.0081,-374.5001"/>
</g>
<!-- PersonalDashboardModule -->
<g id="node27" class="node">
<title>PersonalDashboardModule</title>
<polygon fill="#8dd3c7" stroke="#000000" points="2594.3989,-396 2591.3989,-400 2570.3989,-400 2567.3989,-396 2425.6011,-396 2425.6011,-360 2594.3989,-360 2594.3989,-396"/>
<text text-anchor="middle" x="2510" y="-373.8" font-family="Times,serif" font-size="14.00" fill="#000000">PersonalDashboardModule</text>
</g>
<!-- CoreModule&#45;&gt;PersonalDashboardModule -->
<g id="edge29" class="edge">
<title>CoreModule&#45;&gt;PersonalDashboardModule</title>
<path fill="none" stroke="#000000" d="M1161.3672,-191C1397.3065,-191 2515.8338,-191 2515.8338,-191 2515.8338,-191 2515.8338,-349.7292 2515.8338,-349.7292"/>
<polygon fill="#000000" stroke="#000000" points="2512.3339,-349.7291 2515.8338,-359.7292 2519.3339,-349.7292 2512.3339,-349.7291"/>
</g>
<!-- FeaturesModule&#45;&gt;AppModule -->
<g id="edge4" class="edge">
<title>FeaturesModule&#45;&gt;AppModule</title>
<path fill="none" stroke="#000000" d="M1125.8287,-328.2921C1125.8287,-350.2057 1125.8287,-384 1125.8287,-384 1125.8287,-384 866.9197,-384 866.9197,-384"/>
<polygon fill="#000000" stroke="#000000" points="866.9198,-380.5001 856.9197,-384 866.9197,-387.5001 866.9198,-380.5001"/>
</g>
<!-- LineChartComponent  -->
<g id="node20" class="node">
<title>LineChartComponent </title>
<polygon fill="#fb8072" stroke="#000000" points="1718.5932,-396 1577.4068,-396 1577.4068,-360 1718.5932,-360 1718.5932,-396"/>
<text text-anchor="middle" x="1648" y="-373.8" font-family="Times,serif" font-size="14.00" fill="#000000">LineChartComponent </text>
</g>
<!-- FeaturesModule&#45;&gt;LineChartComponent  -->
<g id="edge21" class="edge">
<title>FeaturesModule&#45;&gt;LineChartComponent </title>
<path fill="none" stroke="#000000" stroke-dasharray="5,2" d="M1161.5394,-315C1287.3049,-315 1591.0405,-315 1591.0405,-315 1591.0405,-315 1591.0405,-349.7778 1591.0405,-349.7778"/>
<polygon fill="#000000" stroke="#000000" points="1587.5406,-349.7778 1591.0405,-359.7778 1594.5406,-349.7778 1587.5406,-349.7778"/>
</g>
<!-- NameWeightCardComponent  -->
<g id="node21" class="node">
<title>NameWeightCardComponent </title>
<polygon fill="#fb8072" stroke="#000000" points="1559.1813,-396 1372.8187,-396 1372.8187,-360 1559.1813,-360 1559.1813,-396"/>
<text text-anchor="middle" x="1466" y="-373.8" font-family="Times,serif" font-size="14.00" fill="#000000">NameWeightCardComponent </text>
</g>
<!-- FeaturesModule&#45;&gt;NameWeightCardComponent  -->
<g id="edge22" class="edge">
<title>FeaturesModule&#45;&gt;NameWeightCardComponent </title>
<path fill="none" stroke="#000000" stroke-dasharray="5,2" d="M1161.5894,-319C1248.7644,-319 1411.6608,-319 1411.6608,-319 1411.6608,-319 1411.6608,-349.9775 1411.6608,-349.9775"/>
<polygon fill="#000000" stroke="#000000" points="1408.1608,-349.9774 1411.6608,-359.9775 1415.1608,-349.9775 1408.1608,-349.9774"/>
</g>
<!-- ProfileFormComponent  -->
<g id="node22" class="node">
<title>ProfileFormComponent </title>
<polygon fill="#fb8072" stroke="#000000" points="1354.766,-396 1201.234,-396 1201.234,-360 1354.766,-360 1354.766,-396"/>
<text text-anchor="middle" x="1278" y="-373.8" font-family="Times,serif" font-size="14.00" fill="#000000">ProfileFormComponent </text>
</g>
<!-- FeaturesModule&#45;&gt;ProfileFormComponent  -->
<g id="edge23" class="edge">
<title>FeaturesModule&#45;&gt;ProfileFormComponent </title>
<path fill="none" stroke="#000000" stroke-dasharray="5,2" d="M1161.5348,-324C1195.9399,-324 1234.2344,-324 1234.2344,-324 1234.2344,-324 1234.2344,-349.7181 1234.2344,-349.7181"/>
<polygon fill="#000000" stroke="#000000" points="1230.7345,-349.718 1234.2344,-359.7181 1237.7345,-349.7181 1230.7345,-349.718"/>
</g>
<!-- FeaturesModule&#45;&gt;HomeModule -->
<g id="edge26" class="edge">
<title>FeaturesModule&#45;&gt;HomeModule</title>
<path fill="none" stroke="#000000" d="M1090.1713,-328.1944C1090.1713,-336.2782 1090.1713,-344 1090.1713,-344 1090.1713,-344 464.6269,-344 464.6269,-344 464.6269,-344 464.6269,-349.8056 464.6269,-349.8056"/>
<polygon fill="#000000" stroke="#000000" points="461.127,-349.8055 464.6269,-359.8056 468.127,-349.8056 461.127,-349.8055"/>
</g>
<!-- FeaturesModule&#45;&gt;PersonalDashboardModule -->
<g id="edge30" class="edge">
<title>FeaturesModule&#45;&gt;PersonalDashboardModule</title>
<path fill="none" stroke="#000000" d="M1161.7219,-297C1390.2802,-297 2270.1441,-297 2270.1441,-297 2270.1441,-297 2270.1441,-378 2270.1441,-378 2270.1441,-378 2415.7731,-378 2415.7731,-378"/>
<polygon fill="#000000" stroke="#000000" points="2415.7731,-381.5001 2425.7731,-378 2415.773,-374.5001 2415.7731,-381.5001"/>
</g>
<!-- SharedModule&#45;&gt;AppModule -->
<g id="edge5" class="edge">
<title>SharedModule&#45;&gt;AppModule</title>
<path fill="none" stroke="#000000" d="M977,-263.196C977,-298.3126 977,-372 977,-372 977,-372 866.719,-372 866.719,-372"/>
<polygon fill="#000000" stroke="#000000" points="866.7191,-368.5001 856.719,-372 866.719,-375.5001 866.7191,-368.5001"/>
</g>
<!-- SharedModule&#45;&gt;FeaturesModule -->
<g id="edge20" class="edge">
<title>SharedModule&#45;&gt;FeaturesModule</title>
<path fill="none" stroke="#000000" d="M1026.4268,-251C1046.6995,-251 1065.5032,-251 1065.5032,-251 1065.5032,-251 1065.5032,-281.9775 1065.5032,-281.9775"/>
<polygon fill="#000000" stroke="#000000" points="1062.0032,-281.9774 1065.5032,-291.9775 1069.0032,-281.9775 1062.0032,-281.9774"/>
</g>
<!-- NumbersonlyDirective  -->
<g id="node31" class="node">
<title>NumbersonlyDirective </title>
<polygon fill="#fb8072" stroke="#000000" points="171.7905,-198 24.2095,-198 24.2095,-162 171.7905,-162 171.7905,-198"/>
<text text-anchor="middle" x="98" y="-175.8" font-family="Times,serif" font-size="14.00" fill="#000000">NumbersonlyDirective </text>
</g>
<!-- SharedModule&#45;&gt;NumbersonlyDirective  -->
<g id="edge35" class="edge">
<title>SharedModule&#45;&gt;NumbersonlyDirective </title>
<path fill="none" stroke="#000000" stroke-dasharray="5,2" d="M927.5406,-254C742.0103,-254 98,-254 98,-254 98,-254 98,-208.2921 98,-208.2921"/>
<polygon fill="#000000" stroke="#000000" points="101.5001,-208.2921 98,-198.2921 94.5001,-208.2922 101.5001,-208.2921"/>
</g>
<!-- HttpMockInterceptor -->
<g id="node8" class="node">
<title>HttpMockInterceptor</title>
<ellipse fill="#fdb462" stroke="#000000" cx="647" cy="-310" rx="93.1774" ry="18"/>
<text text-anchor="middle" x="647" y="-305.8" font-family="Times,serif" font-size="14.00" fill="#000000">HttpMockInterceptor</text>
</g>
<!-- HttpMockInterceptor&#45;&gt;AppModule -->
<g id="edge7" class="edge">
<title>HttpMockInterceptor&#45;&gt;AppModule</title>
<path fill="none" stroke="#000000" d="M740.3651,-310C763.5681,-310 781.9582,-310 781.9582,-310 781.9582,-310 781.9582,-349.7772 781.9582,-349.7772"/>
<polygon fill="#000000" stroke="#000000" points="778.4583,-349.7772 781.9582,-359.7772 785.4583,-349.7773 778.4583,-349.7772"/>
</g>
<!-- LoginComponent -->
<g id="node9" class="node">
<title>LoginComponent</title>
<polygon fill="#ffffb3" stroke="#000000" points="1737.2758,-122 1622.7242,-122 1622.7242,-86 1737.2758,-86 1737.2758,-122"/>
<text text-anchor="middle" x="1680" y="-99.8" font-family="Times,serif" font-size="14.00" fill="#000000">LoginComponent</text>
</g>
<!-- LoginComponent&#45;&gt;CoreModule -->
<g id="edge8" class="edge">
<title>LoginComponent&#45;&gt;CoreModule</title>
<path fill="none" stroke="#000000" d="M1670.7043,-122.1532C1670.7043,-145.7566 1670.7043,-184 1670.7043,-184 1670.7043,-184 1171.3698,-184 1171.3698,-184"/>
<polygon fill="#000000" stroke="#000000" points="1171.3698,-180.5001 1161.3698,-184 1171.3697,-187.5001 1171.3698,-180.5001"/>
</g>
<!-- MessagesComponent -->
<g id="node10" class="node">
<title>MessagesComponent</title>
<polygon fill="#ffffb3" stroke="#000000" points="1604.7548,-122 1469.2452,-122 1469.2452,-86 1604.7548,-86 1604.7548,-122"/>
<text text-anchor="middle" x="1537" y="-99.8" font-family="Times,serif" font-size="14.00" fill="#000000">MessagesComponent</text>
</g>
<!-- MessagesComponent&#45;&gt;CoreModule -->
<g id="edge9" class="edge">
<title>MessagesComponent&#45;&gt;CoreModule</title>
<path fill="none" stroke="#000000" d="M1514.2316,-122.0449C1514.2316,-143.6623 1514.2316,-177 1514.2316,-177 1514.2316,-177 1171.5372,-177 1171.5372,-177"/>
<polygon fill="#000000" stroke="#000000" points="1171.5372,-173.5001 1161.5372,-177 1171.5371,-180.5001 1171.5372,-173.5001"/>
</g>
<!-- PageNotFoundComponent -->
<g id="node11" class="node">
<title>PageNotFoundComponent</title>
<polygon fill="#ffffb3" stroke="#000000" points="1450.8243,-122 1285.1757,-122 1285.1757,-86 1450.8243,-86 1450.8243,-122"/>
<text text-anchor="middle" x="1368" y="-99.8" font-family="Times,serif" font-size="14.00" fill="#000000">PageNotFoundComponent</text>
</g>
<!-- PageNotFoundComponent&#45;&gt;CoreModule -->
<g id="edge10" class="edge">
<title>PageNotFoundComponent&#45;&gt;CoreModule</title>
<path fill="none" stroke="#000000" d="M1319.9854,-122.0348C1319.9854,-141.5762 1319.9854,-170 1319.9854,-170 1319.9854,-170 1171.3309,-170 1171.3309,-170"/>
<polygon fill="#000000" stroke="#000000" points="1171.331,-166.5001 1161.3309,-170 1171.3309,-173.5001 1171.331,-166.5001"/>
</g>
<!-- TopToolbarComponent -->
<g id="node12" class="node">
<title>TopToolbarComponent</title>
<polygon fill="#ffffb3" stroke="#000000" points="1267.2035,-122 1118.7965,-122 1118.7965,-86 1267.2035,-86 1267.2035,-122"/>
<text text-anchor="middle" x="1193" y="-99.8" font-family="Times,serif" font-size="14.00" fill="#000000">TopToolbarComponent</text>
</g>
<!-- TopToolbarComponent&#45;&gt;CoreModule -->
<g id="edge11" class="edge">
<title>TopToolbarComponent&#45;&gt;CoreModule</title>
<path fill="none" stroke="#000000" d="M1140.1395,-122.0109C1140.1395,-122.0109 1140.1395,-151.855 1140.1395,-151.855"/>
<polygon fill="#000000" stroke="#000000" points="1136.6396,-151.8549 1140.1395,-161.855 1143.6396,-151.855 1136.6396,-151.8549"/>
</g>
<!-- MaterialModule -->
<g id="node13" class="node">
<title>MaterialModule</title>
<polygon fill="#8dd3c7" stroke="#000000" points="1095.4706,-122 1092.4706,-126 1071.4706,-126 1068.4706,-122 988.5294,-122 988.5294,-86 1095.4706,-86 1095.4706,-122"/>
<text text-anchor="middle" x="1042" y="-99.8" font-family="Times,serif" font-size="14.00" fill="#000000">MaterialModule</text>
</g>
<!-- MaterialModule&#45;&gt;CoreModule -->
<g id="edge12" class="edge">
<title>MaterialModule&#45;&gt;CoreModule</title>
<path fill="none" stroke="#000000" d="M1091.3121,-122.0109C1091.3121,-122.0109 1091.3121,-151.855 1091.3121,-151.855"/>
<polygon fill="#000000" stroke="#000000" points="1087.8122,-151.8549 1091.3121,-161.855 1094.8122,-151.855 1087.8122,-151.8549"/>
</g>
<!-- LineChartComponent -->
<g id="node17" class="node">
<title>LineChartComponent</title>
<polygon fill="#ffffb3" stroke="#000000" points="2250.0926,-396 2111.9074,-396 2111.9074,-360 2250.0926,-360 2250.0926,-396"/>
<text text-anchor="middle" x="2181" y="-373.8" font-family="Times,serif" font-size="14.00" fill="#000000">LineChartComponent</text>
</g>
<!-- LineChartComponent&#45;&gt;FeaturesModule -->
<g id="edge16" class="edge">
<title>LineChartComponent&#45;&gt;FeaturesModule</title>
<path fill="none" stroke="#000000" d="M2181,-359.7521C2181,-336.9821 2181,-301 2181,-301 2181,-301 1171.5773,-301 1171.5773,-301"/>
<polygon fill="#000000" stroke="#000000" points="1171.5774,-297.5001 1161.5773,-301 1171.5773,-304.5001 1171.5774,-297.5001"/>
</g>
<!-- NameWeightCardComponent -->
<g id="node18" class="node">
<title>NameWeightCardComponent</title>
<polygon fill="#ffffb3" stroke="#000000" points="2093.6811,-396 1910.3189,-396 1910.3189,-360 2093.6811,-360 2093.6811,-396"/>
<text text-anchor="middle" x="2002" y="-373.8" font-family="Times,serif" font-size="14.00" fill="#000000">NameWeightCardComponent</text>
</g>
<!-- NameWeightCardComponent&#45;&gt;FeaturesModule -->
<g id="edge17" class="edge">
<title>NameWeightCardComponent&#45;&gt;FeaturesModule</title>
<path fill="none" stroke="#000000" d="M2002,-359.8314C2002,-338.502 2002,-306 2002,-306 2002,-306 1171.578,-306 1171.578,-306"/>
<polygon fill="#000000" stroke="#000000" points="1171.578,-302.5001 1161.578,-306 1171.578,-309.5001 1171.578,-302.5001"/>
</g>
<!-- ProfileFormComponent -->
<g id="node19" class="node">
<title>ProfileFormComponent</title>
<polygon fill="#ffffb3" stroke="#000000" points="1892.766,-396 1743.234,-396 1743.234,-360 1892.766,-360 1892.766,-396"/>
<text text-anchor="middle" x="1818" y="-373.8" font-family="Times,serif" font-size="14.00" fill="#000000">ProfileFormComponent</text>
</g>
<!-- ProfileFormComponent&#45;&gt;FeaturesModule -->
<g id="edge18" class="edge">
<title>ProfileFormComponent&#45;&gt;FeaturesModule</title>
<path fill="none" stroke="#000000" d="M1818,-359.7772C1818,-339.6348 1818,-310 1818,-310 1818,-310 1171.6564,-310 1171.6564,-310"/>
<polygon fill="#000000" stroke="#000000" points="1171.6565,-306.5001 1161.6564,-310 1171.6564,-313.5001 1171.6565,-306.5001"/>
</g>
<!-- HomeComponent -->
<g id="node23" class="node">
<title>HomeComponent</title>
<polygon fill="#ffffb3" stroke="#000000" points="497.5451,-328 382.4549,-328 382.4549,-292 497.5451,-292 497.5451,-328"/>
<text text-anchor="middle" x="440" y="-305.8" font-family="Times,serif" font-size="14.00" fill="#000000">HomeComponent</text>
</g>
<!-- HomeComponent&#45;&gt;HomeModule -->
<g id="edge24" class="edge">
<title>HomeComponent&#45;&gt;HomeModule</title>
<path fill="none" stroke="#000000" d="M433.3731,-328.2228C433.3731,-328.2228 433.3731,-349.7269 433.3731,-349.7269"/>
<polygon fill="#000000" stroke="#000000" points="429.8732,-349.7269 433.3731,-359.7269 436.8732,-349.727 429.8732,-349.7269"/>
</g>
<!-- HomeRoutingModule -->
<g id="node25" class="node">
<title>HomeRoutingModule</title>
<polygon fill="#8dd3c7" stroke="#000000" points="358.3795,-328 355.3795,-332 334.3795,-332 331.3795,-328 219.6205,-328 219.6205,-292 358.3795,-292 358.3795,-328"/>
<text text-anchor="middle" x="289" y="-305.8" font-family="Times,serif" font-size="14.00" fill="#000000">HomeRoutingModule</text>
</g>
<!-- HomeRoutingModule&#45;&gt;HomeModule -->
<g id="edge27" class="edge">
<title>HomeRoutingModule&#45;&gt;HomeModule</title>
<path fill="none" stroke="#000000" d="M289,-328.2228C289,-348.3652 289,-378 289,-378 289,-378 391.8601,-378 391.8601,-378"/>
<polygon fill="#000000" stroke="#000000" points="391.8601,-381.5001 401.8601,-378 391.8601,-374.5001 391.8601,-381.5001"/>
</g>
<!-- PersonalDashboardComponent -->
<g id="node26" class="node">
<title>PersonalDashboardComponent</title>
<polygon fill="#ffffb3" stroke="#000000" points="2718.1811,-328 2527.8189,-328 2527.8189,-292 2718.1811,-292 2718.1811,-328"/>
<text text-anchor="middle" x="2623" y="-305.8" font-family="Times,serif" font-size="14.00" fill="#000000">PersonalDashboardComponent</text>
</g>
<!-- PersonalDashboardComponent&#45;&gt;PersonalDashboardModule -->
<g id="edge28" class="edge">
<title>PersonalDashboardComponent&#45;&gt;PersonalDashboardModule</title>
<path fill="none" stroke="#000000" d="M2561.0544,-328.2228C2561.0544,-328.2228 2561.0544,-349.7269 2561.0544,-349.7269"/>
<polygon fill="#000000" stroke="#000000" points="2557.5544,-349.7269 2561.0544,-359.7269 2564.5544,-349.727 2557.5544,-349.7269"/>
</g>
<!-- PersonalDashboardRoutingModule -->
<g id="node28" class="node">
<title>PersonalDashboardRoutingModule</title>
<polygon fill="#8dd3c7" stroke="#000000" points="2503.5167,-328 2500.5167,-332 2479.5167,-332 2476.5167,-328 2290.4833,-328 2290.4833,-292 2503.5167,-292 2503.5167,-328"/>
<text text-anchor="middle" x="2397" y="-305.8" font-family="Times,serif" font-size="14.00" fill="#000000">PersonalDashboardRoutingModule</text>
</g>
<!-- PersonalDashboardRoutingModule&#45;&gt;PersonalDashboardModule -->
<g id="edge31" class="edge">
<title>PersonalDashboardRoutingModule&#45;&gt;PersonalDashboardModule</title>
<path fill="none" stroke="#000000" d="M2464.7795,-328.2228C2464.7795,-328.2228 2464.7795,-349.7269 2464.7795,-349.7269"/>
<polygon fill="#000000" stroke="#000000" points="2461.2795,-349.7269 2464.7795,-359.7269 2468.2795,-349.727 2461.2795,-349.7269"/>
</g>
<!-- NumbersonlyDirective -->
<g id="node29" class="node">
<title>NumbersonlyDirective</title>
<polygon fill="#ffffb3" stroke="#000000" points="514.2907,-198 369.7093,-198 369.7093,-162 514.2907,-162 514.2907,-198"/>
<text text-anchor="middle" x="442" y="-175.8" font-family="Times,serif" font-size="14.00" fill="#000000">NumbersonlyDirective</text>
</g>
<!-- NumbersonlyDirective&#45;&gt;SharedModule -->
<g id="edge32" class="edge">
<title>NumbersonlyDirective&#45;&gt;SharedModule</title>
<path fill="none" stroke="#000000" d="M505.9587,-198.027C505.9587,-214.3976 505.9587,-236 505.9587,-236 505.9587,-236 917.4806,-236 917.4806,-236"/>
<polygon fill="#000000" stroke="#000000" points="917.4807,-239.5001 927.4806,-236 917.4806,-232.5001 917.4807,-239.5001"/>
</g>
<!-- ValidUsernameDirective -->
<g id="node30" class="node">
<title>ValidUsernameDirective</title>
<polygon fill="#ffffb3" stroke="#000000" points="351.9314,-198 196.0686,-198 196.0686,-162 351.9314,-162 351.9314,-198"/>
<text text-anchor="middle" x="274" y="-175.8" font-family="Times,serif" font-size="14.00" fill="#000000">ValidUsernameDirective</text>
</g>
<!-- ValidUsernameDirective&#45;&gt;SharedModule -->
<g id="edge33" class="edge">
<title>ValidUsernameDirective&#45;&gt;SharedModule</title>
<path fill="none" stroke="#000000" d="M285.763,-198.1061C285.763,-217.3391 285.763,-245 285.763,-245 285.763,-245 917.5653,-245 917.5653,-245"/>
<polygon fill="#000000" stroke="#000000" points="917.5654,-248.5001 927.5653,-245 917.5653,-241.5001 917.5654,-248.5001"/>
</g>
</g>
</svg>
